<?xml version="1.0" encoding="UTF-8"?>
<!-- Created with Inkscape (http://www.inkscape.org/) -->
<svg width="127px" height="133px" version="1.1" viewBox="0 0 33.757 35.364" xmlns="http://www.w3.org/2000/svg" xmlns:cc="http://creativecommons.org/ns#" xmlns:dc="http://purl.org/dc/elements/1.1/" xmlns:rdf="http://www.w3.org/1999/02/22-rdf-syntax-ns#" xmlns:xlink="http://www.w3.org/1999/xlink">
 <defs>
  <linearGradient id="linearGradient18942-5" x1="1138.8" x2="1197.8" y1="-3285.9" y2="-3308.9" gradientUnits="userSpaceOnUse">
   <stop stop-color="#061b6d" offset="0"/>
   <stop stop-color="#0987b6" stop-opacity=".87451" offset=".125"/>
   <stop stop-color="#0cf3ff" stop-opacity=".74902" offset=".25"/>
   <stop stop-color="#0cf3ff" stop-opacity=".49804" offset=".5"/>
   <stop stop-color="#0cf3ff" stop-opacity="0" offset="1"/>
  </linearGradient>
  <linearGradient id="linearGradient19028-1" x1="1138" x2="1203.9" y1="-3282.4" y2="-3327.7" gradientUnits="userSpaceOnUse" xlink:href="#linearGradient19040"/>
  <linearGradient id="linearGradient19040">
   <stop stop-color="#03a5fe" offset="0"/>
   <stop stop-color="#0df7fe" offset="1"/>
  </linearGradient>
  <linearGradient id="linearGradient19571-4" x1="1150.6" x2="1192.5" y1="-3252.2" y2="-3303.1" gradientUnits="userSpaceOnUse" xlink:href="#linearGradient19040"/>
 </defs>
 <metadata>
  <rdf:RDF>
   <cc:Work rdf:about="">
    <dc:format>image/svg+xml</dc:format>
    <dc:type rdf:resource="http://purl.org/dc/dcmitype/StillImage"/>
    <dc:title/>
   </cc:Work>
  </rdf:RDF>
 </metadata>
 <g transform="translate(-33.77 -45.729)">
  <g transform="matrix(.26458 0 0 .26458 .37798 955.03)">
   <g transform="matrix(1.2684 0 0 1.2684 -1301.6 805.02)">
    <g stroke-width=".78838">
     <g fill="#00a5fe" stroke="url(#linearGradient18942-5)" stroke-width=".78838">
      <path d="m1167.7-3344.1a27.047 26.693 0 0 0-25.48 17.836 27.047 26.693 0 0 0-16.592 24.59 27.047 26.693 0 0 0 27.047 26.693 27.047 26.693 0 0 0 6.7266-0.8594 27.047 26.693 0 0 0 17.492 6.3399 27.047 26.693 0 0 0 16.522-5.5781 27.047 26.693 0 0 0 5.7519 0.6269 27.047 26.693 0 0 0 27.047-26.691 27.047 26.693 0 0 0-15.762-24.228 27.047 26.693 0 0 0-25.428-17.668 27.047 26.693 0 0 0-7.0879 0.9395 27.047 26.693 0 0 0-10.236-2z" fill="url(#linearGradient19028-1)" stroke-width="0"/>
     </g>
    </g>
    <circle cx="1175.9" cy="-3285.4" r="24.926" fill="#fff" stroke-width="0"/>
    <path d="m1183.8-3265.8 1.9926 13.888m-18.572-13.988-1.9926 13.888m10.012-13.219 0.1768 17.854m15.07-23.639c3.5 13.978 5.9142 12.707 5.9142 12.707m-35.899-13.414c-3.5 13.978-5.7374 13.414-5.7374 13.414m35.169 10.479c0 1.6958-1.3747 3.0705-3.0705 3.0705s-3.0704-1.3747-3.0704-3.0705c0-1.6957 1.3747-3.0704 3.0704-3.0704 1.6958 0 3.0705 1.3746 3.0705 3.0704zm12.47-6.8054c0 1.6958-1.3746 3.0705-3.0704 3.0705s-3.0705-1.3747-3.0705-3.0705 1.3747-3.0704 3.0705-3.0704c1.6957 0 3.0704 1.3747 3.0704 3.0704zm-23.896 11.543c0 1.6958-1.3746 3.0705-3.0704 3.0705s-3.0705-1.3747-3.0705-3.0705 1.3747-3.0704 3.0705-3.0704c1.6957 0 3.0704 1.3747 3.0704 3.0704zm-10.866-4.6035c0 1.6958-1.3746 3.0705-3.0704 3.0705s-3.0705-1.3747-3.0705-3.0705 1.3747-3.0704 3.0705-3.0704c1.6957 0 3.0704 1.3747 3.0704 3.0704zm-11.638-7.2929c0 1.6957-1.3747 3.0704-3.0704 3.0704s-3.0704-1.3747-3.0704-3.0704c0-1.6958 1.3746-3.0705 3.0704-3.0705s3.0704 1.3747 3.0704 3.0705zm39.224-30.383c0 10.739-8.706 19.445-19.445 19.445s-19.446-8.706-19.446-19.445c0-10.74 8.706-19.446 19.446-19.446 10.739 0 19.445 8.7061 19.445 19.446z" fill="none" stroke="url(#linearGradient19571-4)" stroke-linecap="round" stroke-linejoin="bevel" stroke-width="2.5228"/>
   </g>
   <text x="170.82085" y="-3354.155" fill="#ff6600" font-family="Raleway" font-size="23.677px" font-weight="bold" letter-spacing="0px" word-spacing="0px" style="font-feature-settings:normal;font-variant-caps:normal;font-variant-ligatures:normal;font-variant-numeric:normal;line-height:1.25" xml:space="preserve"><tspan x="170.82085" y="-3354.155">API</tspan></text>
  </g>
 </g>
</svg>
