<?xml version="1.0" encoding="UTF-8"?>
<!-- Created with Inkscape (http://www.inkscape.org/) -->
<svg width="6.8844mm" height="19.351mm" version="1.1" viewBox="0 0 6.8844 19.351" xmlns="http://www.w3.org/2000/svg" xmlns:cc="http://creativecommons.org/ns#" xmlns:dc="http://purl.org/dc/elements/1.1/" xmlns:rdf="http://www.w3.org/1999/02/22-rdf-syntax-ns#">
 <metadata>
  <rdf:RDF>
   <cc:Work rdf:about="">
    <dc:format>image/svg+xml</dc:format>
    <dc:type rdf:resource="http://purl.org/dc/dcmitype/StillImage"/>
    <dc:title/>
   </cc:Work>
  </rdf:RDF>
 </metadata>
 <g transform="translate(-91.093 -139.6)">
  <g transform="rotate(165 94.079 149.73)">
   <g>
    <g stroke="#f00" stroke-width=".26458px">
     <path d="m95.349 143.41c-0.41188-0.29667-0.52681-0.40195-0.52681-0.40195s-0.72038-0.2117-1.0919-0.22969c-0.20214-0.01-0.57468 0.0574-0.60341 0.067-0.03831 0.01-0.60344 0.0383-0.65132 0.0479-0.04789 0.01-0.22029 0.39239-0.22029 0.39239l0.1724 0.26797v0.16269l0.10536 0.17227 0.01905 0.23926-0.1724 0.18183-0.09578 0.22969s0.1724 0.15313 0.1724 0.22012c0 0.067-0.0095 0.30625-0.0095 0.30625l-0.06705 0.22969 0.38312 0.20097 0.16282 0.22969 0.52681-0.29668s0.20114 0.0861 0.44058-0.0383c0.23945-0.12441 1.0631-0.81348 1.0631-0.81348l0.54597-0.84219z" fill="#ff9000"/>
     <path d="m95.564 143.37s-0.02037-1.1504-0.04741-1.1707c-0.02707-0.0203-0.54859-1.0422-0.54859-1.0422l-1.0227-0.85943-0.40637-0.0406s-0.24381 0.12857-0.27091 0.14887c-0.02709 0.0203 0 0.25716 0 0.25716l0.02037 0.16918s0.05419 0.20978-0.04741 0.23009c-0.10157 0.0203-0.27768 0.0812-0.27768 0.0812l-0.05416 0.18948 0.04741 0.24362s0.02037 0.10151-0.03387 0.10151c-0.05419 0-0.1016 0.0136-0.12869 0.0136-0.02709 0-0.04064 0.35866-0.04064 0.35866l0.16256 0.3722 0.50117 0.27746s0.23027 0.35189 0.25736 0.3722c0.02709 0.0203 1.5645 0.52784 1.5983 0.52784 0.03387 0 0.24381-0.23008 0.24381-0.23008z" fill="#ff5d00" opacity=".8"/>
     <path d="m95.57 143.53c0.50578-0.0445 0.65842-0.0763 0.65842-0.0763s0.72742 0.18613 1.0559 0.36048c0.17873 0.0949 0.4645 0.34295 0.48429 0.36586 0.02802 0.0278 0.49898 0.34119 0.53522 0.37388 0.03628 0.0327-0.01138 0.44976-0.01138 0.44976l-0.2853 0.14221-0.08326 0.13982-0.1787 0.0942-0.13891 0.19582 0.05511 0.24435-0.03522 0.24633s-0.22654 0.0435-0.2608 0.10108c-0.03429 0.0576-0.14848 0.26809-0.14848 0.26809l-0.05993 0.23164-0.43209-0.023-0.25747 0.1142-0.30091-0.5241s-0.21693-0.0287-0.35904-0.258c-0.14213-0.22926-0.49739-1.2423-0.49739-1.2423l-0.03821-1.0027z" fill="#ff9000"/>
     <path d="m95.406 143.38s0.60616-0.97828 0.63984-0.98189c0.03366-4e-3 1.0048-0.61534 1.0048-0.61534l1.3187-0.21609 0.36999 0.17272s0.14375 0.23506 0.15663 0.26635c0.01297 0.0313-0.1316 0.221-0.1316 0.221l-0.10403 0.13501s-0.15391 0.15261-0.07699 0.22196c0.07691 0.0694 0.19709 0.21165 0.19709 0.21165l-0.0504 0.19053-0.16542 0.18514s-0.0694 0.0769-0.02275 0.10453c0.04654 0.0277 0.08038 0.0635 0.10364 0.0774 0.02328 0.0138-0.14862 0.32899-0.14862 0.32899l-0.33015 0.23682-0.57269-0.0176s-0.37798 0.18477-0.41164 0.18838c-0.03368 4e-3 -1.6146-0.34569-1.6437-0.363-0.0291-0.0173-0.09181-0.3223-0.09181-0.3223z" fill="#ff5d00" opacity=".8"/>
    </g>
    <ellipse transform="matrix(.94921 .31463 -.31509 .94906 0 0)" cx="135.8" cy="106.36" rx=".18285" ry=".62264" fill="#6f8a91" stroke-width="0"/>
    <ellipse transform="matrix(.99998 .0069024 -.22782 .9737 0 0)" cx="128.87" cy="145.82" rx=".13762" ry=".3319" fill="#6f8a91" stroke-width="0"/>
   </g>
   <g fill="none">
    <path d="m95.686 142.62 0.12189-0.69702s-0.10835-0.73086-0.11512-0.69702" stroke="#aaa57b" stroke-width=".26458px"/>
    <path d="m95.754 142.64 0.33864-0.68349 0.55536-0.50754" stroke="#aaa57b" stroke-width=".26458px"/>
    <path d="m90.901 159.2c-0.69046 0.34522-2.6104-5.1794-1.0257-7.7665 0.72099-1.177 2.2254-2.4466 3.8545-4.3797l0.95205-1.1298" stroke="#41adbe" stroke-dasharray="1.05833333, 0.26458333" stroke-width=".26458"/>
   </g>
  </g>
 </g>
</svg>
