<?xml version="1.0" encoding="UTF-8"?>
<!-- Created with Inkscape (http://www.inkscape.org/) -->
<svg width="8.011mm" height="9.1955mm" version="1.1" viewBox="0 0 8.011 9.1955" xmlns="http://www.w3.org/2000/svg" xmlns:cc="http://creativecommons.org/ns#" xmlns:dc="http://purl.org/dc/elements/1.1/" xmlns:rdf="http://www.w3.org/1999/02/22-rdf-syntax-ns#">
 <metadata>
  <rdf:RDF>
   <cc:Work rdf:about="">
    <dc:format>image/svg+xml</dc:format>
    <dc:type rdf:resource="http://purl.org/dc/dcmitype/StillImage"/>
    <dc:title/>
   </cc:Work>
  </rdf:RDF>
 </metadata>
 <g transform="translate(-48.155 -77.712)">
  <g transform="matrix(.037403 1.1554e-6 -1.1595e-6 .037535 -7.4653 76.854)" stroke-width="7.0614">
   <ellipse transform="translate(0,4080)" cx="1536.5" cy="-3889.8" rx="7" ry="8.25" fill="#535d6c" fill-opacity=".72222" opacity=".5" stroke="#d8733b" stroke-linecap="round" stroke-linejoin="bevel" stroke-width="1.4123"/>
   <g>
    <path transform="translate(0,4080)" d="m1531-3895.2c-8.4484-9.4445-16.441-19.686-22.25-33.75-12.3-3.9897-15.269-13.382-18.904-18.038" fill="none" stroke="#000" stroke-width="7.0614px"/>
    <path transform="translate(0,4080)" d="m1535.6-3892.5c-5.7374-11.298-10.829-23.251-12.829-38.335-10.862-7.0168-11.043-18.737-13.359-24.171" fill="none" stroke="#000" stroke-width="7.0614px"/>
    <path d="m1552.8 178.53c-2.1213-8.8388-16.971-42.073-16.971-42.073l-12.728-55.154 3.8891-25.456 9.8995 2.1213 7.071 13.789 3.5356 10.253 10.96 6.364s6.7176 12.728 7.0711 14.849c0.3536 2.1213 0.7071 9.8995 1.0607 12.374 0.3535 2.4749 17.324 14.849 17.324 14.849l8.1317 10.607-7.0711 34.295s-8.1317 11.667-12.728 10.607-19.445-7.4246-19.445-7.4246z" fill="#ff8d4c" fill-opacity=".72222" stroke="#d8733b" stroke-width="1.4123"/>
    <path d="m1635.6 58.118c-2.7448 0.76911-44.371 40.259-44.861 41.763-0.4896 1.5034-28.461 47.992-36.383 74.455-2.1079 7.0407-2.7981 21.87-2.7981 21.87l-2.5005 14.318s11.223 11.033 17.519 15.71c4.3855 3.2576 9.0064 6.3053 14 8.5211 9.1564 4.063 19.322 5.3359 28.81 8.55 4.9981 1.6931 10.403 2.7138 14.79 5.6473 2.7447 1.8356 3.7457 5.949 6.8002 7.2029 3.8406 1.5767 8.6425 1.2246 12.447-0.43653 5.2492-2.2917 8.6613-7.6158 12.116-12.185 3.2416-4.2873 5.5747-9.2107 7.9025-14.055 3.3177-6.9046 8.1049-13.666 8.6022-21.31 0.5846-8.9872-2.0539-18.488-6.7821-26.153-2.9043-4.7086-8.0796-7.5891-12.487-10.933-2.8489-2.1612-8.98-5.8686-8.98-5.8686 15.443-10.942 16.138-13.662 16.924-32.568 0 0 9.7947-20.304 11.365-33.88 1.1488-9.9338-7.4986-28.549-7.4986-28.549s6.1482-10.493 6.4866-16.345c0.5409-9.3548-7.2889-27.15-7.2889-27.15-2.6276-4.3603-22.325 28.269-28.182 31.397z" fill="#d8733b" stroke="#ef8546" stroke-width="7.0614px"/>
    <path d="m1661.5 67.056c-2.8285 0.35355-49.851 33.234-50.558 34.648-0.7071 1.4142-35.263 43.241-47.023 68.236-3.1287 6.6502-6.0104 21.213-6.0104 21.213l-4.5962 13.789s9.4623 12.575 14.996 18.135c3.8539 3.872 7.9717 7.5712 12.581 10.503 8.4526 5.3759 18.317 8.1424 27.224 12.728 4.6917 2.4156 9.8856 4.2265 13.789 7.7782 2.4421 2.2223 2.822 6.4386 5.6568 8.1317 3.5643 2.1288 8.3653 2.4927 12.374 1.4142 5.531-1.4879 9.6949-6.2471 13.789-10.253 3.8415-3.7592 6.879-8.2821 9.8995-12.728 4.3049-6.3363 10.042-12.313 11.667-19.799 1.911-8.8011 0.7106-18.588-2.8285-26.87-2.174-5.0872-6.8649-8.7034-10.728-12.664-2.4969-2.5597-8.0104-7.1354-8.0104-7.1354 16.895-8.5305 17.985-11.118 21.567-29.698 0 0 12.698-18.627 16.263-31.82 2.6093-9.6536-3.182-29.345-3.182-29.345s7.6364-9.4656 8.8389-15.203c1.9222-9.1712-3.182-27.931-3.182-27.931-1.9519-4.7018-26.27 24.646-32.527 26.87z" fill="#ff8846" stroke="#ef8546" stroke-width="7.0614px"/>
   </g>
   <ellipse transform="matrix(.81822 .5749 -.18479 .98278 0 0)" cx="1718.9" cy="-796.31" rx="19.223" ry="8.25" fill="#216778" fill-opacity=".72222" opacity=".5" stroke="#d8733b" stroke-linecap="round" stroke-linejoin="bevel" stroke-width="1.4802"/>
  </g>
 </g>
</svg>
