<?xml version="1.0" encoding="UTF-8"?>
<!-- Created with Inkscape (http://www.inkscape.org/) -->
<svg width="7.7586mm" height="7.5598mm" version="1.1" viewBox="0 0 7.7586 7.5598" xmlns="http://www.w3.org/2000/svg" xmlns:cc="http://creativecommons.org/ns#" xmlns:dc="http://purl.org/dc/elements/1.1/" xmlns:rdf="http://www.w3.org/1999/02/22-rdf-syntax-ns#">
 <metadata>
  <rdf:RDF>
   <cc:Work rdf:about="">
    <dc:format>image/svg+xml</dc:format>
    <dc:type rdf:resource="http://purl.org/dc/dcmitype/StillImage"/>
    <dc:title/>
   </cc:Work>
  </rdf:RDF>
 </metadata>
 <g transform="translate(-65.668 -92.893)">
  <g transform="matrix(.26458 0 0 .26458 -107.04 711.13)" stroke="#808080" stroke-opacity=".98677">
   <rect x="652.99" y="-2336.4" width="28.839" height="18.746" rx="1.3716" ry="1.3716" fill="#f8f8f8" opacity=".96" stroke-width=".48509"/>
   <rect x="654.88" y="-2334.5" width="25.065" height="14.449" rx="1.2753" ry="1.2753" fill="#828282" opacity=".96" stroke-width=".46775"/>
   <g fill="#f8f8f8">
    <text x="656.60974" y="-2329.0911" font-family="sans-serif" font-size="2.6924px" letter-spacing="0px" stroke-width=".067309" word-spacing="0px" style="line-height:1.25" xml:space="preserve"><tspan x="656.60974" y="-2329.0911" fill="#f8f8f8" stroke="#808080" stroke-opacity=".98677" stroke-width=".067309">/home/kugo&gt;</tspan></text>
    <g>
     <rect x="665.07" y="-2317.5" width="4.678" height="2.0363" opacity=".96" stroke-width=".53222"/>
     <rect x="661.95" y="-2315.5" width="10.787" height=".37334" opacity=".96" stroke-width=".46206"/>
     <path d="m658.99-2313.4 16.939 0.083c0.46406 0 2.8542 4.4117 2.8542 4.4117s-0.0323 0.6104-0.49639 0.6104h-21.376c-0.46407 0-1.0484-0.3794-0.83766-0.7492l2.1041-3.6917c0.21074-0.3698 0.34816-0.6652 0.81222-0.6644z" opacity=".96" stroke-width=".40125"/>
    </g>
   </g>
   <g fill="#878787">
    <path d="m670.66-2312.6 0.0874 0.4408-11.731-0.028 0.23429-0.4366z" opacity=".96" stroke-width=".22945"/>
    <path d="m670.89-2311.6 0.093 0.4409-12.491-0.028 0.24948-0.4366z" opacity=".96" stroke-width=".23676"/>
    <path d="m671.16-2310.6 0.0989 0.4408-13.284-0.028 0.26529-0.4366z" opacity=".96" stroke-width=".24415"/>
    <path d="m671.39-2309.6 0.10517 0.4409-14.122-0.028 0.28203-0.4365z" opacity=".96" stroke-width=".25174"/>
    <path d="m671.56-2312.6 0.15124 0.4876 4.0716 0.019-0.22427-0.4911z" opacity=".96" stroke-width=".1304"/>
    <path d="m671.93-2311.6 0.1541 0.4895 4.1485 0.019-0.2285-0.493z" opacity=".96" stroke-width=".13188"/>
    <path d="m672.23-2310.7 0.16221 0.4908 4.3671 0.019-0.24054-0.4942z" opacity=".96" stroke-width=".13549"/>
    <path d="m672.61-2309.7 0.16553 0.4938 4.4564 0.019-0.24547-0.4973z" opacity=".96" stroke-width=".13728"/>
   </g>
  </g>
 </g>
</svg>
