<?xml version="1.0" encoding="UTF-8"?>
<!-- Created with Inkscape (http://www.inkscape.org/) -->
<svg width="8.1575mm" height="7.5264mm" version="1.1" viewBox="0 0 8.1575 7.5264" xmlns="http://www.w3.org/2000/svg" xmlns:cc="http://creativecommons.org/ns#" xmlns:dc="http://purl.org/dc/elements/1.1/" xmlns:rdf="http://www.w3.org/1999/02/22-rdf-syntax-ns#">
 <metadata>
  <rdf:RDF>
   <cc:Work rdf:about="">
    <dc:format>image/svg+xml</dc:format>
    <dc:type rdf:resource="http://purl.org/dc/dcmitype/StillImage"/>
    <dc:title/>
   </cc:Work>
  </rdf:RDF>
 </metadata>
 <g transform="translate(-91.171 -75.523)">
  <g transform="matrix(.26458 0 0 .26458 -16.697 -385.23)">
   <g transform="matrix(.1468 0 0 .1468 123.42 1414.4)" fill="#fff" stroke="#808080" stroke-opacity=".98677">
    <path transform="matrix(3.0034 1.653 -3.4185 1.4523 1927 2199.2)" d="m41.388 32.417-14.114-42.122 43.536 8.8381z"/>
    <rect x="1961.7" y="2315" width="162.86" height="105" stroke-width="3.2162"/>
    <rect x="2052.4" y="2333.6" width="56.06" height="55.703" stroke-width="3.7909"/>
    <rect x="1979.1" y="2333.3" width="55.707" height="86.72" stroke-width="3.4806"/>
    <g stroke-width="3.7795">
     <rect x="1993.4" y="2345" width="27.143" height="27.143" rx="72.987" ry="72.987"/>
     <rect x="2059.5" y="2341.4" width="17.091" height="15.607"/>
     <rect x="2084.2" y="2341.1" width="17.091" height="15.607"/>
     <rect x="2059.6" y="2364.7" width="17.091" height="15.607"/>
     <rect x="2084.2" y="2364.9" width="17.091" height="15.607"/>
    </g>
    <g>
     <path transform="matrix(2.66 1.4829 -3.0277 1.3028 1940.1 2211.3)" d="m41.388 32.417-14.114-42.122 43.536 8.8381z"/>
     <path transform="matrix(2.66 1.4941 -3.0277 1.3126 1940.1 2210.5)" d="m41.388 32.417-14.114-42.122 43.536 8.8381z"/>
     <path transform="matrix(2.66 1.4906 -3.0277 1.3096 1940.1 2210.8)" d="m41.388 32.417-14.114-42.122 43.536 8.8381z"/>
    </g>
    <ellipse cx="2043.5" cy="2279.8" rx="12.779" ry="12.526" stroke-width="2.5854"/>
    <path transform="matrix(2.66 1.4906 -3.0277 1.3096 1940.1 2210.8)" d="m41.388 32.417-14.114-42.122 43.536 8.8381z"/>
   </g>
  </g>
 </g>
</svg>
