<?xml version="1.0" encoding="UTF-8"?>
<!-- Created with Inkscape (http://www.inkscape.org/) -->
<svg width="44.766mm" height="13.522mm" version="1.1" viewBox="0 0 44.766 13.522" xmlns="http://www.w3.org/2000/svg" xmlns:cc="http://creativecommons.org/ns#" xmlns:dc="http://purl.org/dc/elements/1.1/" xmlns:rdf="http://www.w3.org/1999/02/22-rdf-syntax-ns#">
 <metadata>
  <rdf:RDF>
   <cc:Work rdf:about="">
    <dc:format>image/svg+xml</dc:format>
    <dc:type rdf:resource="http://purl.org/dc/dcmitype/StillImage"/>
    <dc:title/>
   </cc:Work>
  </rdf:RDF>
 </metadata>
 <g transform="translate(-47.92 -111.08)">
  <g transform="matrix(.26458 0 0 .26458 37.201 -749.29)">
   <g transform="translate(91.352 -73.38)" fill="#deaa87" font-family="Montserrat" letter-spacing="0px" word-spacing="0px">
    <text x="19.34659" y="3353.3547" font-size="32px" font-weight="bold" style="font-feature-settings:normal;font-variant-caps:normal;font-variant-ligatures:normal;font-variant-numeric:normal;line-height:1.25" xml:space="preserve"><tspan x="19.34659" y="3353.3547" fill="#deaa87" font-family="Montserrat" font-size="32px" font-weight="bold" style="font-feature-settings:normal;font-variant-caps:normal;font-variant-ligatures:normal;font-variant-numeric:normal">KUGO</tspan></text>
    <text x="36.514885" y="3370.6882" font-size="24px" font-weight="600" style="font-feature-settings:normal;font-variant-caps:normal;font-variant-ligatures:normal;font-variant-numeric:normal;line-height:1.25" xml:space="preserve"><tspan x="36.514885" y="3370.6882" fill="#deaa87" font-family="Montserrat" font-size="13.333px" font-weight="bold" style="font-feature-settings:normal;font-variant-caps:normal;font-variant-ligatures:normal;font-variant-numeric:normal">T  E  C  H</tspan></text>
   </g>
   <g transform="matrix(.52749 0 0 .5276 29.379 1549.2)" stroke="#deaa87" stroke-width="1.8956">
    <path d="m58.331 3276" fill="none" stroke-width="1.8956px"/>
    <path d="m45.209 3266.7s2.7758 4.4011 4.9326 5.9465c1.9748 1.415 6.7891 2.6502 6.7891 2.6502l-0.22068-6.376z" fill="#ff0101" stroke-width="1.8956px"/>
    <g stroke-linejoin="round">
     <path d="m36.786 3274.9-1e-5 6.988 4.5533 4.1083z" fill="#deaa87" stroke-width="1.8956"/>
     <path d="m68.003 3233.1h-14l-6 6-10-10-10 2.6794-5 13.321 10 9v29l14 14v13l12 12h9" fill="none" stroke-linecap="round" stroke-width="3.7912"/>
     <path d="m47.003 3289.1v8" fill="none" stroke-linecap="round" stroke-width="3.7912"/>
    </g>
    <path d="m30.003 3236.1-2 8 6 6-4-14z" fill="#deaa87" stroke-linecap="round" stroke-linejoin="round" stroke-width="1.8956px"/>
    <g stroke-linejoin="round">
     <path d="m58.003 3255v6.2539" fill="none" stroke-linecap="round" stroke-width="3.5834"/>
     <path d="m42.97 3265.8c-0.0103 0 3.337 5.0124 6.0911 7.0054 2.7541 1.9929 8.235 4.0238 8.235 4.0238" fill-opacity="0" stroke-linecap="square" stroke-width="3.7912" style="paint-order:stroke fill markers"/>
     <path d="m40.003 3268.1 3-3 15 3v17l-5 5 15.204 13.605" fill="none" stroke-linecap="round" stroke-width="3.7912"/>
    </g>
    <g stroke-linejoin="round">
     <path d="m58.219 3295 9.8481 0.048c0 2.3283-0.0698 8.2412-0.0698 8.2412z" fill="#deaa87" stroke-width="3.0091"/>
     <path d="m68.445 3307.3-7 5h7z" fill="#deaa87" stroke-linecap="round" stroke-width="1.8956px"/>
     <path d="m51.75 3240.3 3.9453-3.7528h5.1481z" stroke-width="3.7912"/>
    </g>
    <path d="m43.561 3266.1a0.11907 0.25516 0 0 1-0.07972 0.2408 0.11907 0.25516 0 0 1-0.13242-0.082" fill-opacity="0" stroke-linecap="square" stroke-linejoin="round" stroke-width="3.7912" style="paint-order:stroke fill markers"/>
    <path d="m78.671 3276" fill="none" stroke-width="1.8956px"/>
    <path d="m91.793 3266.6s-2.7758 4.4011-4.9326 5.9465c-1.9748 1.415-6.7891 2.6502-6.7891 2.6502l0.22068-6.376z" fill="#f00" fill-opacity=".99561" stroke-width="1.8956px"/>
    <g stroke-linejoin="round">
     <path d="m100.22 3274.9 1e-5 6.988-4.5533 4.1083z" fill="#deaa87" stroke-width="1.8956"/>
     <path d="m69 3233h14l6 6 10-10 10 2.6794 5 13.321-10 9v29l-14 14v13l-12 12h-9" fill="none" stroke-linecap="round" stroke-width="3.7912"/>
     <path d="m90 3289v8" fill="none" stroke-linecap="round" stroke-width="3.7912"/>
    </g>
    <path d="m107 3236 2 8-6 6 4-14z" fill="#deaa87" stroke-linecap="round" stroke-linejoin="round" stroke-width="1.8956px"/>
    <g stroke-linejoin="round">
     <path d="m79 3254.9v6.2539" fill="none" stroke-linecap="round" stroke-width="3.5834"/>
     <path d="m94.032 3265.7c0.0103 0-3.337 5.0124-6.0911 7.0054-2.7541 1.9929-8.235 4.0238-8.235 4.0238" fill-opacity="0" stroke-linecap="square" stroke-width="3.7912" style="paint-order:stroke fill markers"/>
     <path d="m97 3268-3-3-15 3v17l5 5-15.204 13.605" fill="none" stroke-linecap="round" stroke-width="3.7912"/>
    </g>
    <g stroke-linejoin="round">
     <path d="m78.584 3295-10.517 0.049c0 2.3631 0.0745 8.3643 0.0745 8.3643z" fill="#deaa87" stroke-width="3.0091"/>
     <path d="m68.558 3307.3 7 5h-7z" fill="#deaa87" stroke-linecap="round" stroke-width="1.8956px"/>
     <path d="m85.253 3240.2-3.9453-3.7528h-5.1481z" stroke-width="3.7912"/>
    </g>
    <path transform="scale(-1,1)" d="m-93.442 3266a0.11907 0.25516 0 0 1-0.07972 0.2408 0.11907 0.25516 0 0 1-0.13241-0.082" fill-opacity="0" stroke-linecap="square" stroke-linejoin="round" stroke-width="3.7912" style="paint-order:stroke fill markers"/>
   </g>
  </g>
 </g>
</svg>
