<?xml version="1.0" encoding="UTF-8"?>
<!-- Created with Inkscape (http://www.inkscape.org/) -->
<svg width="9.8775mm" height="7.2063mm" version="1.1" viewBox="0 0 9.8775 7.2063" xmlns="http://www.w3.org/2000/svg" xmlns:cc="http://creativecommons.org/ns#" xmlns:dc="http://purl.org/dc/elements/1.1/" xmlns:rdf="http://www.w3.org/1999/02/22-rdf-syntax-ns#">
 <metadata>
  <rdf:RDF>
   <cc:Work rdf:about="">
    <dc:format>image/svg+xml</dc:format>
    <dc:type rdf:resource="http://purl.org/dc/dcmitype/StillImage"/>
    <dc:title/>
   </cc:Work>
  </rdf:RDF>
 </metadata>
 <g transform="translate(-81.24 -88.534)">
  <g transform="matrix(.20243 0 0 .20243 63.442 68.78)" stroke="#808080" stroke-opacity=".98677">
   <rect x="88.371" y="98.033" width="47.89" height="30.956" rx="4.4979" ry="4.4979" fill="#fff" opacity=".96" stroke-width=".90461"/>
   <path d="m88.399 122.98h47.708" fill="none" stroke-width=".79375"/>
   <g fill="#fff" stroke-width=".79375">
    <circle cx="112.32" cy="125.98" r=".63142" opacity=".96"/>
    <path d="m125.95 119.15-3.0579-3.2065-2.3399 3.7626 1.2479-4.2514-4.4284-0.14514 4.3058-1.045-2.0885-3.9077 3.0579 3.2064 2.3399-3.7626-1.2479 4.2514 4.4284 0.14514-4.3058 1.045z" opacity=".96"/>
    <path transform="rotate(17.333 117.06 148.32)" d="m103.27 110.29-3.8861-0.19134-1.7773-3.4611 2.1088-3.2698 3.8861 0.19135 1.7773 3.4611z" opacity=".96"/>
    <path d="m103.85 118.8c-4.7466 0.85196-1.82 1.907-4.9312-1.7777-3.1111-3.6847-2.5615-0.6227-0.92604-5.1594s-0.7415-2.5297 4.0051-3.3817c4.7466-0.85196 1.82-1.907 4.9312 1.7777s2.5615 0.6227 0.92604 5.1594c-1.6355 4.5367 0.7415 2.5297-4.0051 3.3817z" opacity=".96"/>
   </g>
   <path d="m109.6 129.24h5.2917l2.0428 3.5382h-9.2527z" fill="none" stroke-width=".79375"/>
   <path d="m103.97 132.82h16.698" fill="none" stroke-width=".71438"/>
   <circle cx="102.92" cy="113.64" r="1.9182" fill="#fff" opacity=".96" stroke-width=".71438"/>
  </g>
 </g>
</svg>
