<?xml version="1.0" encoding="UTF-8"?>
<!-- Created with Inkscape (http://www.inkscape.org/) -->
<svg width="7.5223mm" height="7.5223mm" version="1.1" viewBox="0 0 7.5223 7.5223" xmlns="http://www.w3.org/2000/svg" xmlns:cc="http://creativecommons.org/ns#" xmlns:dc="http://purl.org/dc/elements/1.1/" xmlns:rdf="http://www.w3.org/1999/02/22-rdf-syntax-ns#">
 <metadata>
  <rdf:RDF>
   <cc:Work rdf:about="">
    <dc:format>image/svg+xml</dc:format>
    <dc:type rdf:resource="http://purl.org/dc/dcmitype/StillImage"/>
    <dc:title/>
   </cc:Work>
  </rdf:RDF>
 </metadata>
 <g transform="translate(-53.522 -64.82)">
  <g stroke="#808080">
   <g fill="#fff">
    <rect x="53.607" y="64.905" width="7.3522" height="7.3522" stroke-width=".1701"/>
    <rect x="53.975" y="66.558" width="4.6312" height="5.4108" stroke-width=".15333"/>
    <rect x="58.94" y="66.558" width="1.6324" height="5.4025" stroke-width=".17916"/>
    <rect x="54.007" y="65.253" width="5.4418" height=".97062" stroke-width=".15387"/>
   </g>
   <text transform="scale(1.0549 .94792)" x="51.431767" y="69.49823" fill="#000000" font-family="sans-serif" font-size=".50093px" letter-spacing="0px" stroke-width=".012523" word-spacing="0px" style="line-height:1.25" xml:space="preserve"><tspan x="51.431767" y="69.49823">www.kugo.tech</tspan><tspan x="51.431767" y="70.124397"/></text>
   <g fill="#fff">
    <rect x="59.755" y="65.367" width=".68633" height=".68633" rx=".21377" ry=".21377" stroke-width=".15387"/>
    <g stroke-width=".15235">
     <rect x="54.355" y="67.055" width="3.8824" height="1.1026" rx=".21377" ry=".21377"/>
     <rect x="54.355" y="68.714" width="3.8824" height="1.1026" rx=".21377" ry=".21377"/>
     <rect x="54.355" y="70.374" width="3.8824" height="1.1026" rx=".21377" ry=".21377"/>
    </g>
    <rect x="53.607" y="64.905" width="7.3522" height="7.3522" stroke-width=".1701"/>
    <rect x="53.975" y="66.558" width="4.6312" height="5.4108" stroke-width=".15333"/>
    <rect x="58.94" y="66.558" width="1.6324" height="5.4025" stroke-width=".17916"/>
    <rect x="54.007" y="65.253" width="5.4418" height=".97062" stroke-width=".15387"/>
   </g>
   <text transform="scale(1.0549 .94792)" x="51.431767" y="69.49823" fill="#000000" font-family="sans-serif" font-size=".50093px" letter-spacing="0px" stroke-width=".012523" word-spacing="0px" style="line-height:1.25" xml:space="preserve"><tspan x="51.431767" y="69.49823">www.kugo.tech</tspan><tspan x="51.431767" y="70.124397"/></text>
   <g fill="#fff">
    <rect x="59.755" y="65.367" width=".68633" height=".68633" rx=".21377" ry=".21377" stroke-width=".15387"/>
    <g stroke-width=".15235">
     <rect x="54.355" y="67.055" width="3.8824" height="1.1026" rx=".21377" ry=".21377"/>
     <rect x="54.355" y="68.714" width="3.8824" height="1.1026" rx=".21377" ry=".21377"/>
     <rect x="54.355" y="70.374" width="3.8824" height="1.1026" rx=".21377" ry=".21377"/>
    </g>
   </g>
  </g>
 </g>
</svg>
